<mxfile host="Electron" modified="2024-03-19T13:03:34.247Z" agent="Mozilla/5.0 (Windows NT 10.0; Win64; x64) AppleWebKit/537.36 (KHTML, like Gecko) draw.io/24.0.4 Chrome/120.0.6099.109 Electron/28.1.0 Safari/537.36" etag="8PuKuT9R4IBUNDY_o9eH" version="24.0.4" type="device">
  <diagram name="ページ1" id="LE8fIzdrHe0wcv1LTvfw">
    <mxGraphModel dx="1924" dy="1151" grid="1" gridSize="10" guides="1" tooltips="1" connect="1" arrows="1" fold="1" page="1" pageScale="1" pageWidth="1600" pageHeight="1200" math="0" shadow="0">
      <root>
        <mxCell id="0" />
        <mxCell id="cFaB45KztUIKXS-_cTrr-4" value="背景" style="" parent="0" />
        <mxCell id="cFaB45KztUIKXS-_cTrr-6" value="" style="rounded=0;whiteSpace=wrap;html=1;fillColor=#B3B3B3;fontColor=#333333;strokeColor=#666666;" parent="cFaB45KztUIKXS-_cTrr-4" vertex="1">
          <mxGeometry width="1570" height="60" as="geometry" />
        </mxCell>
        <mxCell id="cFaB45KztUIKXS-_cTrr-9" value="ウインドウ" style="locked=1;" parent="0" />
        <mxCell id="cFaB45KztUIKXS-_cTrr-10" value="" style="rounded=0;whiteSpace=wrap;html=1;strokeWidth=3;" parent="cFaB45KztUIKXS-_cTrr-9" vertex="1">
          <mxGeometry x="1" y="1" width="1569" height="1309" as="geometry" />
        </mxCell>
        <mxCell id="cFaB45KztUIKXS-_cTrr-11" value="" style="rounded=0;whiteSpace=wrap;html=1;fillColor=#B3B3B3;fontColor=#333333;strokeColor=#666666;" parent="cFaB45KztUIKXS-_cTrr-9" vertex="1">
          <mxGeometry width="1570" height="60" as="geometry" />
        </mxCell>
        <mxCell id="cFaB45KztUIKXS-_cTrr-12" value="&lt;font style=&quot;font-size: 48px;&quot;&gt;×&lt;/font&gt;" style="rounded=0;whiteSpace=wrap;html=1;" parent="cFaB45KztUIKXS-_cTrr-9" vertex="1">
          <mxGeometry x="1510" y="10" width="40" height="40" as="geometry" />
        </mxCell>
        <mxCell id="E26dOTSS2dgB1jKbyn8y-0" style="edgeStyle=orthogonalEdgeStyle;rounded=0;orthogonalLoop=1;jettySize=auto;html=1;" edge="1" parent="cFaB45KztUIKXS-_cTrr-9" source="cFaB45KztUIKXS-_cTrr-10" target="cFaB45KztUIKXS-_cTrr-10">
          <mxGeometry relative="1" as="geometry" />
        </mxCell>
        <mxCell id="cFaB45KztUIKXS-_cTrr-14" value="名称未設定レイヤ" style="" parent="0" />
        <mxCell id="9JbMDj_ZPigItXiSbsYy-87" value="&lt;font style=&quot;font-size: 30px;&quot;&gt;最新の内容&lt;/font&gt;" style="rounded=0;whiteSpace=wrap;html=1;align=left;dashed=1;dashPattern=8 8;verticalAlign=bottom;" parent="cFaB45KztUIKXS-_cTrr-14" vertex="1">
          <mxGeometry x="73" y="90" width="230" height="46" as="geometry" />
        </mxCell>
        <mxCell id="9JbMDj_ZPigItXiSbsYy-88" value="&lt;div style=&quot;&quot;&gt;&lt;span style=&quot;text-align: center;&quot;&gt;&lt;font style=&quot;font-size: 30px;&quot;&gt;2022-03-06 12:34:56&lt;/font&gt;&lt;/span&gt;&lt;br&gt;&lt;/div&gt;" style="rounded=0;whiteSpace=wrap;html=1;align=left;fillColor=#CCCCCC;" parent="cFaB45KztUIKXS-_cTrr-14" vertex="1">
          <mxGeometry x="327" y="90" width="293" height="41" as="geometry" />
        </mxCell>
        <mxCell id="9JbMDj_ZPigItXiSbsYy-89" value="&lt;div style=&quot;&quot;&gt;&lt;span style=&quot;background-color: initial;&quot;&gt;&lt;font style=&quot;font-size: 30px;&quot;&gt;▼会計責任者&lt;/font&gt;&lt;/span&gt;&lt;/div&gt;" style="rounded=0;whiteSpace=wrap;html=1;align=left;fillColor=#CCCCCC;" parent="cFaB45KztUIKXS-_cTrr-14" vertex="1">
          <mxGeometry x="657" y="92" width="220" height="41" as="geometry" />
        </mxCell>
        <mxCell id="i6Qc4OtPlhMksd2xvjw1-1" value="&lt;div style=&quot;&quot;&gt;&lt;span style=&quot;background-color: initial;&quot;&gt;&lt;font style=&quot;font-size: 30px;&quot;&gt;123,456&lt;/font&gt;&lt;/span&gt;&lt;/div&gt;" style="rounded=0;whiteSpace=wrap;html=1;align=right;fillColor=#CCCCCC;" parent="cFaB45KztUIKXS-_cTrr-14" vertex="1">
          <mxGeometry x="71" y="359" width="220" height="48" as="geometry" />
        </mxCell>
        <mxCell id="i6Qc4OtPlhMksd2xvjw1-4" value="&lt;div style=&quot;&quot;&gt;&lt;span style=&quot;background-color: initial;&quot;&gt;&lt;font style=&quot;font-size: 30px;&quot;&gt;スーパー地元&lt;/font&gt;&lt;/span&gt;&lt;/div&gt;" style="rounded=0;whiteSpace=wrap;html=1;align=left;fillColor=#CCCCCC;" parent="cFaB45KztUIKXS-_cTrr-14" vertex="1">
          <mxGeometry x="68" y="697" width="220" height="48" as="geometry" />
        </mxCell>
        <mxCell id="i6Qc4OtPlhMksd2xvjw1-7" value="&lt;div style=&quot;&quot;&gt;&lt;font style=&quot;font-size: 30px;&quot;&gt;▼ 口座振込&lt;/font&gt;&lt;/div&gt;" style="rounded=0;whiteSpace=wrap;html=1;align=left;fillColor=#CCCCCC;" parent="cFaB45KztUIKXS-_cTrr-14" vertex="1">
          <mxGeometry x="76" y="163" width="220" height="48" as="geometry" />
        </mxCell>
        <mxCell id="i6Qc4OtPlhMksd2xvjw1-8" value="&lt;div style=&quot;&quot;&gt;&lt;div style=&quot;font-family: &amp;quot;MS GothIc&amp;quot;, Consolas, &amp;quot;Courier New&amp;quot;, monospace, Consolas, &amp;quot;Courier New&amp;quot;, monospace; line-height: 19px;&quot;&gt;&lt;font style=&quot;font-size: 30px; background-color: rgb(204, 204, 204);&quot;&gt;組織活動費&lt;/font&gt;&lt;/div&gt;&lt;/div&gt;" style="rounded=0;whiteSpace=wrap;html=1;align=left;fillColor=#CCCCCC;" parent="cFaB45KztUIKXS-_cTrr-14" vertex="1">
          <mxGeometry x="69" y="555" width="220" height="48" as="geometry" />
        </mxCell>
        <mxCell id="i6Qc4OtPlhMksd2xvjw1-10" value="&lt;div style=&quot;&quot;&gt;&lt;span style=&quot;background-color: initial;&quot;&gt;&lt;font style=&quot;font-size: 30px;&quot;&gt;東京都千代田区霞が関&lt;/font&gt;&lt;/span&gt;&lt;/div&gt;" style="rounded=0;whiteSpace=wrap;html=1;align=left;verticalAlign=top;fillColor=#CCCCCC;" parent="cFaB45KztUIKXS-_cTrr-14" vertex="1">
          <mxGeometry x="67" y="767" width="343" height="144" as="geometry" />
        </mxCell>
        <mxCell id="i6Qc4OtPlhMksd2xvjw1-13" value="&lt;div style=&quot;&quot;&gt;&lt;font style=&quot;font-size: 30px;&quot;&gt;▼ (14)&lt;/font&gt;&lt;font style=&quot;font-size: 30px;&quot;&gt;経常経費の内訳&lt;/font&gt;&lt;/div&gt;" style="rounded=0;whiteSpace=wrap;html=1;align=left;fillColor=#CCCCCC;" parent="cFaB45KztUIKXS-_cTrr-14" vertex="1">
          <mxGeometry x="73" y="290" width="347" height="48" as="geometry" />
        </mxCell>
        <mxCell id="i6Qc4OtPlhMksd2xvjw1-14" value="&lt;div style=&quot;&quot;&gt;&lt;font style=&quot;font-size: 30px;&quot;&gt;▼ 3.備品・消耗品費&lt;/font&gt;&lt;/div&gt;" style="rounded=0;whiteSpace=wrap;html=1;align=left;fillColor=#CCCCCC;" parent="cFaB45KztUIKXS-_cTrr-14" vertex="1">
          <mxGeometry x="468" y="290" width="346" height="48" as="geometry" />
        </mxCell>
        <mxCell id="i6Qc4OtPlhMksd2xvjw1-15" value="&lt;div style=&quot;&quot;&gt;&lt;span style=&quot;background-color: initial;&quot;&gt;&lt;font style=&quot;font-size: 30px;&quot;&gt;2022-12-01&lt;/font&gt;&lt;/span&gt;&lt;/div&gt;" style="rounded=0;whiteSpace=wrap;html=1;align=left;fillColor=#CCCCCC;" parent="cFaB45KztUIKXS-_cTrr-14" vertex="1">
          <mxGeometry x="71" y="429" width="220" height="41" as="geometry" />
        </mxCell>
        <mxCell id="i6Qc4OtPlhMksd2xvjw1-17" value="&lt;div style=&quot;&quot;&gt;&lt;br&gt;&lt;/div&gt;" style="rounded=0;whiteSpace=wrap;html=1;align=left;verticalAlign=top;fillColor=#CCCCCC;" parent="cFaB45KztUIKXS-_cTrr-14" vertex="1">
          <mxGeometry x="70" y="946" width="340" height="48" as="geometry" />
        </mxCell>
        <mxCell id="i6Qc4OtPlhMksd2xvjw1-19" value="&lt;font style=&quot;font-size: 30px;&quot;&gt;☑交付金に係る支出&lt;/font&gt;" style="text;html=1;strokeColor=none;fillColor=#CCCCCC;align=left;verticalAlign=middle;whiteSpace=wrap;rounded=0;" parent="cFaB45KztUIKXS-_cTrr-14" vertex="1">
          <mxGeometry x="438" y="943" width="372" height="60" as="geometry" />
        </mxCell>
        <mxCell id="i6Qc4OtPlhMksd2xvjw1-21" value="&lt;span style=&quot;font-size: 30px;&quot;&gt;××信用金庫&lt;/span&gt;" style="rounded=0;whiteSpace=wrap;html=1;align=left;fillColor=#CCCCCC;" parent="cFaB45KztUIKXS-_cTrr-14" vertex="1">
          <mxGeometry x="357" y="162" width="493" height="48" as="geometry" />
        </mxCell>
        <mxCell id="i6Qc4OtPlhMksd2xvjw1-22" value="&lt;div style=&quot;&quot;&gt;&lt;span style=&quot;font-size: 30px;&quot;&gt;摘要&lt;/span&gt;&lt;/div&gt;" style="rounded=0;whiteSpace=wrap;html=1;align=left;fillColor=#CCCCCC;" parent="cFaB45KztUIKXS-_cTrr-14" vertex="1">
          <mxGeometry x="69" y="625" width="220" height="48" as="geometry" />
        </mxCell>
        <mxCell id="i6Qc4OtPlhMksd2xvjw1-24" value="&lt;div style=&quot;&quot;&gt;&lt;font style=&quot;font-size: 30px;&quot;&gt;▼&amp;nbsp;&lt;/font&gt;&lt;font style=&quot;font-size: 30px;&quot;&gt;振込明細書に係る…&lt;/font&gt;&lt;/div&gt;" style="rounded=0;whiteSpace=wrap;html=1;align=left;fillColor=#CCCCCC;" parent="cFaB45KztUIKXS-_cTrr-14" vertex="1">
          <mxGeometry x="68" y="1013" width="347" height="48" as="geometry" />
        </mxCell>
        <mxCell id="i6Qc4OtPlhMksd2xvjw1-25" value="&lt;font style=&quot;font-size: 84px;&quot;&gt;○&lt;/font&gt;" style="text;html=1;strokeColor=none;fillColor=none;align=center;verticalAlign=middle;whiteSpace=wrap;rounded=0;fontSize=60;" parent="cFaB45KztUIKXS-_cTrr-14" vertex="1">
          <mxGeometry x="70" y="227" width="60" height="30" as="geometry" />
        </mxCell>
        <mxCell id="i6Qc4OtPlhMksd2xvjw1-26" value="&lt;font style=&quot;font-size: 48px;&quot;&gt;●&lt;/font&gt;" style="text;html=1;strokeColor=none;fillColor=none;align=center;verticalAlign=middle;whiteSpace=wrap;rounded=0;fontSize=48;" parent="cFaB45KztUIKXS-_cTrr-14" vertex="1">
          <mxGeometry x="70" y="229" width="60" height="30" as="geometry" />
        </mxCell>
        <mxCell id="i6Qc4OtPlhMksd2xvjw1-27" value="&lt;font style=&quot;font-size: 30px;&quot;&gt;報告対象&lt;/font&gt;" style="text;html=1;strokeColor=none;fillColor=none;align=left;verticalAlign=middle;whiteSpace=wrap;rounded=0;" parent="cFaB45KztUIKXS-_cTrr-14" vertex="1">
          <mxGeometry x="125" y="216" width="275" height="60" as="geometry" />
        </mxCell>
        <mxCell id="i6Qc4OtPlhMksd2xvjw1-28" value="&lt;font style=&quot;font-size: 84px;&quot;&gt;○&lt;/font&gt;" style="text;html=1;strokeColor=none;fillColor=none;align=center;verticalAlign=middle;whiteSpace=wrap;rounded=0;fontSize=60;" parent="cFaB45KztUIKXS-_cTrr-14" vertex="1">
          <mxGeometry x="480" y="227" width="60" height="30" as="geometry" />
        </mxCell>
        <mxCell id="i6Qc4OtPlhMksd2xvjw1-29" value="&lt;font style=&quot;font-size: 30px;&quot;&gt;生活費(報告対象外)&lt;/font&gt;" style="text;html=1;strokeColor=none;fillColor=none;align=left;verticalAlign=middle;whiteSpace=wrap;rounded=0;" parent="cFaB45KztUIKXS-_cTrr-14" vertex="1">
          <mxGeometry x="532" y="217" width="275" height="60" as="geometry" />
        </mxCell>
        <mxCell id="i6Qc4OtPlhMksd2xvjw1-30" value="&lt;font style=&quot;font-size: 84px;&quot;&gt;○&lt;/font&gt;" style="text;html=1;strokeColor=none;fillColor=none;align=center;verticalAlign=middle;whiteSpace=wrap;rounded=0;fontSize=60;" parent="cFaB45KztUIKXS-_cTrr-14" vertex="1">
          <mxGeometry x="793" y="227" width="60" height="30" as="geometry" />
        </mxCell>
        <mxCell id="i6Qc4OtPlhMksd2xvjw1-31" value="&lt;font style=&quot;font-size: 30px;&quot;&gt;政治活動報告対象外(廃止予定)&lt;/font&gt;" style="text;html=1;strokeColor=none;fillColor=none;align=left;verticalAlign=middle;whiteSpace=wrap;rounded=0;" parent="cFaB45KztUIKXS-_cTrr-14" vertex="1">
          <mxGeometry x="849" y="217" width="421" height="60" as="geometry" />
        </mxCell>
        <mxCell id="i6Qc4OtPlhMksd2xvjw1-32" value="&lt;font style=&quot;font-size: 84px;&quot;&gt;○&lt;/font&gt;" style="text;html=1;strokeColor=none;fillColor=none;align=center;verticalAlign=middle;whiteSpace=wrap;rounded=0;fontSize=60;" parent="cFaB45KztUIKXS-_cTrr-14" vertex="1">
          <mxGeometry x="260" y="227" width="60" height="30" as="geometry" />
        </mxCell>
        <mxCell id="i6Qc4OtPlhMksd2xvjw1-33" value="&lt;span style=&quot;font-size: 30px;&quot;&gt;タスク計上&lt;/span&gt;" style="text;html=1;strokeColor=none;fillColor=none;align=left;verticalAlign=middle;whiteSpace=wrap;rounded=0;" parent="cFaB45KztUIKXS-_cTrr-14" vertex="1">
          <mxGeometry x="316" y="216" width="275" height="60" as="geometry" />
        </mxCell>
        <mxCell id="i6Qc4OtPlhMksd2xvjw1-57" value="&lt;div style=&quot;&quot;&gt;&lt;div style=&quot;font-family: &amp;quot;MS GothIc&amp;quot;, Consolas, &amp;quot;Courier New&amp;quot;, monospace, Consolas, &amp;quot;Courier New&amp;quot;, monospace; line-height: 19px;&quot;&gt;&lt;span style=&quot;font-size: 30px; background-color: rgb(204, 204, 204);&quot;&gt;パーティ1&lt;/span&gt;&lt;/div&gt;&lt;/div&gt;" style="rounded=0;whiteSpace=wrap;html=1;align=left;fillColor=#CCCCCC;" parent="cFaB45KztUIKXS-_cTrr-14" vertex="1">
          <mxGeometry x="69" y="490" width="220" height="48" as="geometry" />
        </mxCell>
        <mxCell id="i6Qc4OtPlhMksd2xvjw1-67" value="&lt;span style=&quot;font-size: 30px;&quot;&gt;報告除外で処理されていますが、××という条文上の理由で報告するのが適当と思われます。&lt;/span&gt;" style="rounded=0;whiteSpace=wrap;html=1;align=left;verticalAlign=top;fillColor=#FFFFFF;" parent="cFaB45KztUIKXS-_cTrr-14" vertex="1">
          <mxGeometry x="52" y="1098" width="748" height="144" as="geometry" />
        </mxCell>
      </root>
    </mxGraphModel>
  </diagram>
</mxfile>
